<?xml version="1.0" encoding="utf-8"?>
<!-- Generator: Adobe Illustrator 15.0.2, SVG Export Plug-In . SVG Version: 6.00 Build 0)  -->
<!DOCTYPE svg PUBLIC "-//W3C//DTD SVG 1.1//EN" "http://www.w3.org/Graphics/SVG/1.1/DTD/svg11.dtd">
<svg version="1.1" id="Layer_1" xmlns="http://www.w3.org/2000/svg" xmlns:xlink="http://www.w3.org/1999/xlink" x="0px" y="0px"
	 width="140px" height="55px" viewBox="0 0 140 55" enable-background="new 0 0 140 55" xml:space="preserve">
<g id="Shape_39">
	<g>
		<path fill-rule="evenodd" clip-rule="evenodd" fill="#AB2044" d="M25.734,18.466C17.928,5.613,2.048,10.721,1.933,27.418
			c-0.064,9.169,8.344,12.597,13.941,16.263c5.428,3.555,9.291,8.42,9.896,10.49c0.519-2.029,4.821-7.031,9.846-10.59
			c5.494-3.891,14.005-7.094,13.941-16.263C49.441,10.58,31.286,7.062,25.734,18.466z"/>
	</g>
</g>
<g id="Shape_43">
	<g>
		<path fill-rule="evenodd" clip-rule="evenodd" fill="#FFFFFF" d="M21.8,37.028l-1.699-2.102l-1.869,2.752
			c-0.984,5.195,1.115,6.906,1.115,6.906c1.506,1.43,1.411-1.152,1.411-1.152l-0.064-4.818C20.763,37.849,21.8,37.028,21.8,37.028z"
			/>
	</g>
</g>
<g id="Shape_47">
	<g>
		<path fill-rule="evenodd" clip-rule="evenodd" fill="#FFFFFF" d="M42.658,15.534c-2.737-2.847-7.444-2.408-7.444-2.408
			c-6.568,0.875-9.852,7.772-9.852,7.772C17.918,7.323,9.488,14,9.488,14c-8.363,5.25-0.014,5.2,1.428,4.458
			c2.391-1.23,0.652,10.539,0.652,10.539c3.175,0,13.794-2.736,13.794-2.736l4.159,8.083c-1.095,0.547-0.547,4.396-0.547,4.396
			l0.547,4.379c1.423,2.736,2.299-0.438,2.299-0.438l0.438-3.502c-0.35-1.132,1.149-2.738,1.149-2.738l1.324-2.582
			c0.767-0.877-0.065-6.173-0.065-6.173c-2.737-4.599-2.299-7.663-2.299-7.663c0.328-1.643,2.665-2.824,2.758-2.908
			c1.569-1.414,6.547-0.048,6.547-0.048C43.644,16.628,42.658,15.534,42.658,15.534z"/>
	</g>
</g>
<path fill="#FFFFFF" stroke="#AB2045" stroke-width="1.6879" stroke-miterlimit="10" d="M21.139,25.446
	c0,4.884-3.9,8.845-8.711,8.845c-4.812,0-6.553-3.961-6.553-8.845c0-4.884,1.924-7.818,6.553-9.132
	C19.884,14.197,21.139,20.562,21.139,25.446z"/>
<g id="Shape_45">
	<g>
		<ellipse fill-rule="evenodd" clip-rule="evenodd" fill="#AB2044" cx="24.639" cy="29.488" rx="6.674" ry="7.032"/>
	</g>
</g>
<text transform="matrix(1 0 0 1 61.436 44.4219)" fill="#AB2044" font-family="'SourceSansPro-Light'" font-size="46.2677">Rise</text>
<circle fill="none" stroke="#AB2045" stroke-miterlimit="10" cx="25.888" cy="7.158" r="5.2"/>
<path fill="#FFFFFF" stroke="#AB2045" stroke-width="1.4542" stroke-miterlimit="10" d="M45.46,24.587
	c0,4.569-3.094,8.274-6.912,8.274c-3.818,0-4.773-3.759-5.473-8.274c-0.708-4.565-2.451-8.273,5.473-8.273
	C42.366,16.314,45.46,20.017,45.46,24.587z"/>
</svg>
